# xmcd
#
# Track frame offsets:
#	150
#	15578
#	36344
#	56404
#	69304
#	82311
#	97383
#	114758
#	127107
#	148046
#
# Disc length: 2135
#
# Revision: 1
# Processed by: cddbd v1.5.1PL0 Copyright (c) Steve Scherf et al.
# Submitted via: CDex 1.50
# Normalized: r0:DSETVAR1
#
DISCID=8e08550a
DTITLE=Various Artist - Cool Country Hits Vol 4
DYEAR=2003
DGENRE=Country
TTITLE0=Tim McGraw - I Like It, I Love It
TTITLE1=LeAnn Rimes - Commitment
TTITLE2=Hal Ketchum - Past The Point Of Rescue
TTITLE3=Lyle Lovett - Cowboy Man
TTITLE4=Sawyer Brown - Six Days On The Road
TTITLE5=Jo Dee Messina - Bye - Bye
TTITLE6=Wynonna - Tell Me Why
TTITLE7=Hank Williams Jr - Born To Boogie
TTITLE8=Ken Mellons - Jukebox Junkie
TTITLE9=The Judds - Rockin With The Rhythm Of The Rain
EXTD=YEAR: 2003
EXTT0=
EXTT1=
EXTT2=
EXTT3=
EXTT4=
EXTT5=
EXTT6=
EXTT7=
EXTT8=
EXTT9=
PLAYORDER=
